<svg xmlns="http://www.w3.org/2000/svg" viewBox="0 0 900 600">
  <rect width="900" height="600" fill="#f93">
  </rect>
  <rect width="900" height="200" y="200" fill="#fff">
  </rect>
  <rect width="900" height="200" y="400" fill="#128807">
  </rect>
  <g transform="translate(450,300)" fill="#008">
    <circle r="92.5">
    </circle>
    <circle r="80" fill="#fff">
    </circle>
  </g>
  <g id="chakra">
    <circle r="7" fill="#008"/>
    <g id="spoke">
      <path d="M 0,-80 0,-92.5" stroke-width="4" stroke="#008"/>
      <path d="M 0,-15 0,-7" stroke-width="4" stroke="#008"/>
      <path d="M 0,-30 0,-22" stroke-width="4" stroke="#008"/>
      <path d="M 0,-45 0,-37" stroke-width="4" stroke="#008"/>
      <path d="M 0,-60 0,-52" stroke-width="4" stroke="#008"/>
      <path d="M 0,-75 0,-67" stroke-width="4" stroke="#008"/>
    </g>
  </g>
  <use xlink:href="#spoke" transform="rotate(15,450,300)"/>
  <use xlink:href="#spoke" transform="rotate(30,450,300)"/>
  <use xlink:href="#spoke" transform="rotate(45,450,300)"/>
  <use xlink:href="#spoke" transform="rotate(60,450,300)"/>
  <use xlink:href="#spoke" transform="rotate(75,450,300)"/>
  <use xlink:href="#spoke" transform="rotate(90,450,300)"/>
  <use xlink:href="#spoke" transform="rotate(105,450,300)"/>
  <use xlink:href="#spoke" transform="rotate(120,450,300)"/>
  <use xlink:href="#spoke" transform="rotate(135,450,300)"/>
  <use xlink:href="#spoke" transform="rotate(150,450,300)"/>
  <use xlink:href="#spoke" transform="rotate(165,450,300)"/>
  <use xlink:href="#spoke" transform="rotate(180,450,300)"/>
  <use xlink:href="#spoke" transform="rotate(195,450,300)"/>
  <use xlink:href="#spoke" transform="rotate(210,450,300)"/>
  <use xlink:href="#spoke" transform="rotate(225,450,300)"/>
  <use xlink:href="#spoke" transform="rotate(240,450,300)"/>
  <use xlink:href="#spoke" transform="rotate(255,450,300)"/>
  <use xlink:href="#spoke" transform="rotate(270,450,300)"/>
  <use xlink:href="#spoke" transform="rotate(285,450,300)"/>
  <use xlink:href="#spoke" transform="rotate(300,450,300)"/>
  <use xlink:href="#spoke" transform="rotate(315,450,300)"/>
  <use xlink:href="#spoke" transform="rotate(330,450,300)"/>
  <use xlink:href="#spoke" transform="rotate(345,450,300)"/>
</svg>